<svg width="24" height="24" viewBox="0 0 24 24" fill="none" xmlns="http://www.w3.org/2000/svg">
<path fill-rule="evenodd" clip-rule="evenodd" d="M19.8888 5.83354C20.3501 4.74619 19.2538 3.64988 18.1665 4.11119L4.80067 9.78152C3.68472 10.255 3.75089 11.8584 4.90205 12.2383L9.58129 13.7825C9.8822 13.8818 10.1182 14.1178 10.2175 14.4187L11.7617 19.0979C12.1416 20.2491 13.745 20.3153 14.2185 19.1993L19.8888 5.83354ZM17.3854 2.27002C20.1282 1.10639 22.8936 3.87179 21.73 6.61464L16.0596 19.9804C14.8654 22.7954 10.8207 22.6285 9.86244 19.7247L8.47615 15.5238L4.2753 14.1376C1.3715 13.1793 1.2046 9.13459 4.01957 7.94035L17.3854 2.27002Z" fill="white"/>
</svg>
